<svg xmlns="http://www.w3.org/2000/svg" viewBox="0 0 128 128" width="128" height="128">
    <path d="M0 0h128v128H0z" fill="#f8f8f8"/>
    <path d="M80.7 94.4c-0.6 0.9-1.6 1.5-2.7 1.5h-51c-1.1 0-2.1-0.6-2.7-1.5-0.6-0.9-0.6-2 0-2.8l18.6-27.8c0.6-0.9 1.6-1.5 2.7-1.5h51c1.1 0 2.1 0.6 2.7 1.5 0.6 0.9 0.6 2 0 2.8L80.7 94.4zM96.5 77.6L80.6 96.8l-12.7-18.8 15.5-23.2 12.7 18.8L96.5 77.6z" fill="#007396"/>
    <path d="M62.7 48.7L72.1 61c0.9 1.3 0.6 3.2-0.7 4.2-1.3 0.9-3.2 0.6-4.2-0.7L54.1 52.2l-7.9 11.8 11.7 17.5 7.9-11.8L62.7 48.7z" fill="#007396"/>
    <path d="M85.2 60.4c0.6 0.9 0.4 2.1-0.5 2.7l-34.2 23.6c-0.9 0.6-2.1 0.4-2.7-0.5-0.6-0.9-0.4-2.1 0.5-2.7l34.2-23.6c0.9-0.6 2.1-0.4 2.7 0.5z" fill="#007396"/>
    <path d="M95.3 27.3L86.6 38.7 59.5 15.8 70.2 4.4c1.2-1.8 3.7-2.3 5.5-1.2l25.4 16.7c1.8 1.2 2.3 3.7 1.2 5.5L95.3 27.3z" fill="#007396"/>
    <path d="M16.5 53.2l-0.5 0.8c-0.3 0.4-0.7 0.6-1.1 0.6H6.2c-0.6 0-1.1-0.5-1.1-1.1s0.5-1.1 1.1-1.1h9.7c0.4 0 0.8 0.2 1.1 0.5z" fill="#007396"/>
  </svg>
  