<svg xmlns="http://www.w3.org/2000/svg" viewBox="0 0 128 128">
    <path fill="#777BB3" d="M64 4C30.2 4 2 22.7 2 45.4c0 15.2 12.8 28.6 32.4 35.2-1.1 6.6-1.2 12-1.1 16.5-7.5 5.5-16 8.6-25.3 8.8v10.1c8.9 0 17.6-3.5 24.8-9.5 3 3.5 6.9 6.7 11.7 9.2 4.7 2.5 9.9 4 15.4 4 5.5 0 10.7-1.5 15.4-4 4.8-2.5 8.7-5.7 11.7-9.2 7.2 6 15.9 9.5 24.8 9.5v-10.1c-9.3-.2-17.8-3.3-25.3-8.8.1-4.5 0-9.9-1.1-16.5C113.2 74 126 60.6 126 45.4 126 22.7 97.8 4 64 4zm0 11.6c28.4 0 52.1 14.6 52.1 29.8 0 8.2-5.4 16-15.4 21.9-7.6-7.4-20-14.4-36.7-14.4-16.6 0-29 7-36.7 14.4-10-5.9-15.4-13.7-15.4-21.9 0-15.2 23.7-29.8 52.1-29.8zm-.3 20.4c-14.6 0-25.4 4.6-31.4 11.1-3.6-1.1-8.5-2.2-13.8-1.2-7.1 1.4-11.3 6.1-11.6 13.1-1.7 6.1-.2 10.7 2.6 14.1-1.1 6.8-1.4 13.6-.7 19.4 2.8.1 5.5.1 8.3.1 6.1-4.3 13.1-7.3 20.3-7.3s14.2 3 20.3 7.3c2.8 0 5.5 0 8.3-.1.7-5.8.4-12.6-.7-19.4 2.8-3.4 4.3-8 2.6-14.1-.3-7-4.5-11.7-11.6-13.1-5.3-1-10.2.1-13.8 1.2-6-6.5-16.8-11.1-31.4-11.1zm6.8 13.7c1.9 0 3.5 1.7 3.5 3.7s-1.5 3.6-3.5 3.6h-6.8v6.9h6.8c1.9 0 3.5 1.7 3.5 3.7 0 2.1-1.5 3.6-3.5 3.6H58c-1.9 0-3.4-1.7-3.4-3.7v-6.9c0-2 1.5-3.7 3.4-3.7h6.8v-6.9H58c-1.9 0-3.4-1.7-3.4-3.7 0-2.1 1.5-3.7 3.4-3.7h6.8zm-8.7 2.7c-1.3 0-2.3 1-2.3 2.2 0 1.2 1 2.2 2.3 2.2h4.6v9.3h-4.6c-1.3 0-2.3 1-2.3 2.2 0 1.2 1 2.2 2.3 2.2h4.6v9.3h-4.6c-1.3 0-2.3 1-2.3 2.2 0 1.2 1 2.2 2.3 2.2h11c1.3 0 2.3-1 2.3-2.2 0-1.2-1-2.2-2.3-2.2h-4.6v-9.3h4.6c1.3 0 2.3-1 2.3-2.2 0-1.2-1-2.2-2.3-2.2h-4.6v-9.3h4.6c1.3 0 2.3-1 2.3-2.2 0-1.2-1-2.2-2.3-2.2h-11zm34.3 0c1.3 0 2.3 1 2.3 2.2 0 1.2-1 2.2-2.3 2.2h-4.6v9.3h4.6c1.3 0 2.3 1 2.3 2.2 0 1.2-1 2.2-2.3 2.2h-11c-1.3 0-2.3-1-2.3-2.2 0-1.2 1-2.2 2.3-2.2h4.6v-9.3h-4.6c-1.3 0-2.3-1-2.3-2.2 0-1.2 1-2.2 2.3-2.2h11zm-8.7 2.7c-1.3 0-2.3 1-2.3 2.2 0 1.2 1 2.2 2.3 2.2h4.6v9.3h-4.6c-1.3 0-2.3 1-2.3 2.2 0 1.2 1 2.2 2.3 2.2h4.6v9.3h-4.6c-1.3 0-2.3 1-2.3 2.2 0 1.2 1 2.2 2.3 2.2h11c1.3 0 2.3-1 2.3-2.2 0-1.2-1-2.2-2.3-2.2h-4.6v-9.3h4.6c1.3 0 2.3-1 2.3-2.2 0-1.2-1-2.2-2.3-2.2h-4.6v-9.3h4.6c1.3 0 2.3-1 2.3-2.2 0-1.2-1-2.2-2.3-2.2h-11zm-34.3 0c1.3 0 2.3 1 2.3 2.2 0 1.2-1 2.2-2.3 2.2h-4.6v9.3h4.6c1.3 0 2.3 1 2.3 2.2 0 1.2-1 2.2-2.3 2.2h-11c-1.3 0-2.3-1-2.3-2.2 0-1.2 1-2.2 2.3-2.2h4.6v-9.3h-4.6c-1.3 0-2.3-1-2.3-2.2 0-1.2 1-2.2 2.3-2.2h11zm8.7-2.7h-11c-1.3 0-2.3 1-2.3 2.2 0 1.2 1 2.2 2.3 2.2h4.6v9.3h-4.6c-1.3 0-2.3 1-2.3 2.2 0 1.2 1 2.2 2.3 2.2h4.6v9.3h-4.6c-1.3 0-2.3 1-2.3 2.2 0 1.2 1 2.2 2.3 2.2h11c1.3 0 2.3-1 2.3-2.2 0-1.2-1-2.2-2.3-2.2h-4.6v-9.3h4.6c1.3 0 2.3-1 2.3-2.2 0-1.2-1-2.2-2.3-2.2h-4.6v-9.3h4.6c1.3 0 2.3-1 2.3-2.2 0-1.2-1-2.2-2.3-2.2z"/>
</svg>
  